<svg xmlns="http://www.w3.org/2000/svg" id="fd2f49a6-6eec-49e1-8adc-3c522f94dca6" data-name="b385ca18-4b85-46d4-bb4b-571c73a19812" width="30.1341" height="18.1738" viewBox="0 0 30.1341 18.1738"><title>arrow-left</title><path d="M.2406,9.6909l8.2219,8.2213a.8482.8482,0,0,0,.601.261l.0147.0006a.8528.8528,0,0,0,.5956-.2409.8641.8641,0,0,0,.0105-1.2221l-.0078-.0079L2.9147,9.9418H29.259a.8566.8566,0,1,0,.0185-1.7131H2.9147L9.6738,1.47A.8576.8576,0,0,0,9.6952.2583.8462.8462,0,0,0,9.0852,0a.8951.8951,0,0,0-.621.2556L.2409,8.48A.8587.8587,0,0,0,.2406,9.6909Z" transform="translate(0.0092 0)"></path></svg>